<svg xmlns="http://www.w3.org/2000/svg"><defs><symbol viewBox="0 0 64 64" id="call-us"><circle cx="32" cy="32" r="32"/><path d="M28.962 25.343c-.417-4.794-5.418-7.146-5.63-7.242a1.063 1.063 0 0 0-.635-.085c-5.774.958-6.642 4.318-6.677 4.458-.048.196-.039.399.022.589 6.886 21.366 21.198 25.327 25.903 26.63.362.1.661.181.888.255a1.088 1.088 0 0 0 .788-.046c.144-.065 3.544-1.667 4.375-6.891.037-.227 0-.463-.105-.668-.074-.144-1.853-3.528-6.784-4.724a1.066 1.066 0 0 0-.964.229c-1.556 1.329-3.705 2.745-4.632 2.891-6.217-3.04-9.688-8.872-9.819-9.978-.076-.622 1.348-2.806 2.987-4.582.207-.225.312-.53.283-.836z" opacity=".2"/><path d="M28.962 23.343c-.417-4.794-5.418-7.146-5.63-7.242a1.063 1.063 0 0 0-.635-.085c-5.774.958-6.642 4.318-6.677 4.458-.048.196-.039.399.022.589 6.886 21.366 21.198 25.327 25.903 26.63.362.1.661.181.888.255a1.088 1.088 0 0 0 .788-.046c.144-.065 3.544-1.667 4.375-6.891.037-.227 0-.463-.105-.668-.074-.144-1.853-3.528-6.784-4.724a1.066 1.066 0 0 0-.964.229c-1.556 1.329-3.705 2.745-4.632 2.891-6.217-3.04-9.688-8.872-9.819-9.978-.076-.622 1.348-2.806 2.987-4.582.207-.225.312-.53.283-.836z"/></symbol><symbol viewBox="0 0 500 500" id="camera"><path clip-rule="evenodd" d="M277.258 276.758c0-12.54 10.176-22.715 22.712-22.715s22.715 10.175 22.715 22.715c0 12.537-10.179 22.712-22.715 22.712s-22.712-10.175-22.712-22.712zm22.712-59.057c-32.615 0-59.056 26.441-59.056 59.057s26.44 59.052 59.056 59.052 59.057-26.436 59.057-59.052-26.442-59.057-59.057-59.057zM31.949 381.241c0 20.079 16.264 36.34 36.34 36.34H431.71c20.078 0 36.34-16.261 36.34-36.34V172.274c0-20.079-16.262-36.342-36.34-36.342h-34.07l-46.521-46.52c-5.356-5.358-12.36-7.993-19.348-7.993H268.26c-6.993 0-14.081 2.635-19.352 7.993l-46.342 46.52H168.23V115.49c0-8.811-7.08-15.9-15.901-15.9H93.274a15.856 15.856 0 0 0-15.899 15.9v20.442H68.29c-20.077 0-36.34 16.264-36.34 36.342v208.967zm118.112-163.54H95.548c-9.992 0-18.173-8.177-18.173-18.17 0-9.996 8.181-18.173 18.173-18.173h54.512c9.99 0 18.17 8.177 18.17 18.173.001 9.993-8.18 18.17-18.169 18.17zm149.909-36.343c52.693 0 95.396 42.705 95.396 95.4 0 52.69-42.703 95.397-95.396 95.397-52.694 0-95.396-42.707-95.396-95.397 0-52.695 42.702-95.4 95.396-95.4z" fill-rule="evenodd"/></symbol><symbol viewBox="0 0 18 18" id="check"><path d="M4.9 7.1L3.5 8.5 8 13 18 3l-1.4-1.4L8 10.2 4.9 7.1zM16 16H2V2h10V0H2C.9 0 0 .9 0 2v14c0 1.1.9 2 2 2h14c1.1 0 2-.9 2-2V8h-2v8z" fill-rule="evenodd"/></symbol><symbol viewBox="0 0 505 403" id="close"><path fill-rule="evenodd" d="M505.006 49.335l-10.563 10.572-19.369-19.384-19.368 19.384-10.564-10.572 19.369-19.385-19.369-19.384L455.706-.007l19.368 19.385L494.443-.007l10.563 10.573-19.368 19.384 19.368 19.385zM0 401.505h298.789V403H0v-1.495z"/></symbol><symbol viewBox="0 0 79 36" id="menu"><path d="M6.196 7.997H72.65c3.057 0 5.538-1.462 5.538-3.265 0-1.802-2.481-3.265-5.538-3.265H6.196C3.139 1.467.658 2.93.658 4.732S3.14 7.997 6.196 7.997zm66.454 6.53H6.196c-3.057 0-5.538 1.464-5.538 3.266s2.481 3.265 5.538 3.265H72.65c3.057 0 5.538-1.463 5.538-3.265s-2.481-3.265-5.538-3.265zm0 13.062H6.196c-3.057 0-5.538 1.463-5.538 3.265s2.481 3.265 5.538 3.265H72.65c3.057 0 5.538-1.463 5.538-3.265s-2.481-3.265-5.538-3.265z"/></symbol><symbol viewBox="0 0 500 500" id="phone"><path clip-rule="evenodd" d="M100.59 431.711c0 20.078 16.263 36.34 36.342 36.34h227.137c20.078 0 36.341-16.262 36.341-36.34V54.662c0-12.536-10.176-22.713-22.712-22.713s-22.716 10.177-22.716 22.713v22.713h-218.05c-20.079 0-36.342 16.264-36.342 36.343v317.993zm65.417-308.909h168.988a19.932 19.932 0 0 1 19.987 19.991v96.302a19.932 19.932 0 0 1-19.987 19.991H166.007a19.934 19.934 0 0 1-19.989-19.991v-96.302a19.934 19.934 0 0 1 19.989-19.991zm-19.989 195.34c0-12.536 10.177-22.715 22.713-22.715s22.714 10.179 22.714 22.715c0 12.537-10.178 22.711-22.714 22.711s-22.713-10.174-22.713-22.711zm81.77 0c0-12.536 10.177-22.715 22.713-22.715 12.536 0 22.715 10.179 22.715 22.715 0 12.537-10.179 22.711-22.715 22.711-12.537 0-22.713-10.174-22.713-22.711zm81.769 0c0-12.536 10.175-22.715 22.716-22.715 12.535 0 22.71 10.179 22.71 22.715 0 12.537-10.175 22.711-22.71 22.711-12.542 0-22.716-10.174-22.716-22.711zm-163.539 81.767c0-12.536 10.177-22.711 22.713-22.711s22.714 10.175 22.714 22.711c0 12.54-10.178 22.715-22.714 22.715s-22.713-10.175-22.713-22.715zm81.77 0c0-12.536 10.177-22.711 22.713-22.711 12.536 0 22.715 10.175 22.715 22.711 0 12.54-10.179 22.715-22.715 22.715-12.537 0-22.713-10.175-22.713-22.715zm81.769 0c0-12.536 10.175-22.711 22.716-22.711 12.535 0 22.71 10.175 22.71 22.711 0 12.54-10.175 22.715-22.71 22.715-12.542 0-22.716-10.175-22.716-22.715z" fill-rule="evenodd"/></symbol><symbol viewBox="0 0 500 500" id="user"><path clip-rule="evenodd" d="M415.762 346.214c-19.078-24.896-42.156-41.063-75.223-50.236l-30.983 108.475c0 9.992-8.181 18.172-18.172 18.172-9.988 0-18.169-8.18-18.169-18.172v-86.311c0-12.536-10.178-22.715-22.715-22.715-12.536 0-22.713 10.179-22.713 22.715v86.311c0 9.992-8.181 18.172-18.17 18.172-9.992 0-18.173-8.18-18.173-18.172l-30.983-108.475c-33.068 9.262-56.145 25.34-75.221 50.236-7.542 9.812-11.64 29.527-11.908 40.07.09 2.725 0 5.906 0 9.082v36.345c0 20.078 16.264 36.34 36.343 36.34h281.648c20.078 0 36.345-16.262 36.345-36.34v-36.345c0-3.176-.089-6.357 0-9.082-.275-10.543-4.368-30.259-11.906-40.07zm-260.66-218.141c0 53.059 33.078 131.013 95.398 131.013 61.237 0 95.396-77.954 95.396-131.013 0-53.057-42.702-96.124-95.396-96.124s-95.398 43.067-95.398 96.124z" fill-rule="evenodd"/></symbol><symbol viewBox="0 0 60 60" id="whatsapp"><g fill-rule="evenodd"><path d="M30 60c16.569 0 30-13.431 30-30C60 13.431 46.569 0 30 0 13.431 0 0 13.431 0 30c0 16.569 13.431 30 30 30z"/><path d="M30.071 46.221a16.34 16.34 0 0 1-7.885-2.014l-9.032 2.87 2.944-8.685a16.022 16.022 0 0 1-2.34-8.358c0-8.94 7.303-16.188 16.314-16.188 9.009 0 16.313 7.247 16.313 16.188 0 8.94-7.304 16.187-16.314 16.187zm0-29.797c-7.563 0-13.715 6.105-13.715 13.61 0 2.977.97 5.735 2.612 7.979l-1.713 5.054 5.27-1.675a13.708 13.708 0 0 0 7.546 2.251c7.562 0 13.716-6.105 13.716-13.609s-6.154-13.61-13.716-13.61zm8.238 17.338c-.1-.165-.367-.265-.766-.463-.4-.199-2.367-1.159-2.733-1.29-.367-.133-.634-.2-.9.198-.266.397-1.033 1.29-1.267 1.555-.233.265-.466.298-.866.1-.4-.199-1.688-.618-3.216-1.97-1.188-1.051-1.991-2.35-2.224-2.747-.233-.397-.025-.612.175-.81.18-.177.4-.463.6-.694.2-.232.267-.397.4-.662s.067-.496-.033-.695c-.1-.199-.9-2.151-1.234-2.946-.333-.794-.665-.661-.9-.661-.233 0-.5-.034-.766-.034s-.7.1-1.066.497c-.367.397-1.4 1.357-1.4 3.31 0 1.952 1.433 3.838 1.633 4.102.2.265 2.766 4.402 6.83 5.99 4.067 1.589 4.067 1.059 4.8.993.733-.066 2.365-.96 2.7-1.886.332-.927.332-1.722.233-1.887z"/></g></symbol></defs></svg>