<?xml version="1.0" encoding="UTF-8"?>
<svg id="SVGRoot" version="1.1" viewBox="0 0 79 36" xmlns="http://www.w3.org/2000/svg">
 <path d="m6.196 7.9973h66.454c3.0569 0 5.5378-1.4628 5.5378-3.2652 0-1.8024-2.4809-3.2652-5.5378-3.2652h-66.454c-3.0569 0-5.5378 1.4628-5.5378 3.2652 0 1.8024 2.4809 3.2652 5.5378 3.2652zm66.454 6.5305h-66.454c-3.0569 0-5.5378 1.4628-5.5378 3.2652s2.4809 3.2652 5.5378 3.2652h66.454c3.0569 0 5.5378-1.4628 5.5378-3.2652s-2.4809-3.2652-5.5378-3.2652zm0 13.061h-66.454c-3.0569 0-5.5378 1.4628-5.5378 3.2652 0 1.8024 2.4809 3.2652 5.5378 3.2652h66.454c3.0569 0 5.5378-1.4628 5.5378-3.2652 0-1.8024-2.4809-3.2652-5.5378-3.2652z"/>
</svg>
